<svg width="50" height="50" viewBox="0 0 50 50" fill="none" xmlns="http://www.w3.org/2000/svg">
<rect x="5" y="5" width="40" height="40" rx="20" fill="black"/>
<path d="M17.8831 34V16.5H25.4581C27.0248 16.5 28.3748 16.7583 29.5081 17.275C30.6414 17.775 31.5164 18.5 32.1331 19.45C32.7498 20.4 33.0581 21.5333 33.0581 22.85C33.0581 24.15 32.7498 25.275 32.1331 26.225C31.5164 27.1583 30.6414 27.875 29.5081 28.375C28.3748 28.875 27.0248 29.125 25.4581 29.125H20.1331L21.9331 27.35V34H17.8831ZM29.0081 34L24.6331 27.65H28.9581L33.3831 34H29.0081ZM21.9331 27.8L20.1331 25.9H25.2331C26.4831 25.9 27.4164 25.6333 28.0331 25.1C28.6498 24.55 28.9581 23.8 28.9581 22.85C28.9581 21.8833 28.6498 21.1333 28.0331 20.6C27.4164 20.0667 26.4831 19.8 25.2331 19.8H20.1331L21.9331 17.875V27.8Z" fill="white"/>
</svg>
